Hanif_Medium_7_5_grf.mot
version=1
nRows=42
nColumns=19
inDegrees=yes
endheader
time	right_ground_force_vx	right_ground_force_vy	right_ground_force_vz	right_ground_force_px	right_ground_force_py	right_ground_force_pz	right_ground_torque_x	right_ground_torque_y	right_ground_torque_z	left_ground_force_vx	left_ground_force_vy	left_ground_force_vz	left_ground_force_px	left_ground_force_py	left_ground_force_pz	left_ground_torque_x	left_ground_torque_y	left_ground_torque_z
4.150000	1.550040	314.711000	22.429500	0.180168	0.000000	-1.443640	-19.599800	5.778640	-5.868020	-0.929269	290.635000	-21.942500	0.212189	0.000000	-0.977908	21.790700	-5.850340	4.009750
4.155000	1.343640	315.443000	22.692700	0.180237	0.000000	-1.444420	-19.401700	5.801060	-5.854930	-0.699619	289.797000	-22.074200	0.211784	0.000000	-0.978915	22.014700	-5.830340	3.882800
4.160000	0.907922	315.100000	22.502400	0.180195	0.000000	-1.444370	-19.404600	5.766150	-5.864510	-0.751135	290.777000	-21.979300	0.212272	0.000000	-0.977989	21.820800	-5.795570	4.031280
4.165000	1.079170	314.984000	22.132100	0.180129	0.000000	-1.443880	-19.549000	5.734310	-5.891880	-0.482420	290.472000	-22.056500	0.212047	0.000000	-0.978281	21.877100	-5.830570	3.964990
4.170000	1.386750	314.099000	21.738300	0.180563	0.000000	-1.444120	-19.414200	5.768000	-5.741180	-1.066470	291.100000	-21.707200	0.213066	0.000000	-0.978759	22.076200	-5.882110	4.269370
4.175000	1.503970	313.266000	21.700700	0.180632	0.000000	-1.443620	-19.517600	5.763160	-5.703650	-0.792605	289.686000	-21.659100	0.213212	0.000000	-0.978261	21.819100	-5.862500	4.291380
4.180000	2.023690	312.649000	21.888800	0.180315	0.000000	-1.444120	-19.312400	5.709920	-5.793630	-0.666504	288.907000	-22.021000	0.212571	0.000000	-0.980048	22.273900	-5.846780	4.102500
4.185000	1.981170	313.677000	21.686000	0.180022	0.000000	-1.444510	-19.253200	5.870740	-5.899070	-0.629727	288.155000	-21.812000	0.213026	0.000000	-0.978363	21.729700	-5.847530	4.221370
4.190000	1.909150	312.820000	21.439300	0.181111	0.000000	-1.443540	-19.505100	5.786570	-5.548260	-0.782889	288.576000	-21.652900	0.213439	0.000000	-0.979490	22.090000	-5.892440	4.346670
4.195000	1.699440	312.184000	21.257100	0.181055	0.000000	-1.444000	-19.326700	5.828750	-5.551990	-1.021810	289.192000	-21.695200	0.213854	0.000000	-0.979359	22.104300	-5.840780	4.473180
4.200000	2.580460	313.519000	21.522800	0.180435	0.000000	-1.444110	-19.360500	5.809410	-5.774910	-0.782510	290.804000	-21.976400	0.213703	0.000000	-0.978856	22.075800	-5.790530	4.449610
4.205000	2.466090	313.234000	20.983800	0.181258	0.000000	-1.443870	-19.419500	5.957830	-5.508060	-0.890919	289.766000	-21.753700	0.214110	0.000000	-0.979637	22.225800	-5.828580	4.554270
4.210000	2.636610	312.847000	20.781800	0.180693	0.000000	-1.443080	-19.638400	5.879200	-5.687420	-0.717172	289.742000	-21.704800	0.214786	0.000000	-0.979288	22.119200	-5.855270	4.750740
4.215000	2.432530	312.531000	20.935800	0.180536	0.000000	-1.443140	-19.604300	5.857330	-5.728280	-1.027580	289.003000	-21.347200	0.215137	0.000000	-0.979326	22.080500	-5.816910	4.834040
4.220000	2.597310	312.297000	20.510700	0.181480	0.000000	-1.442750	-19.708900	5.936200	-5.429490	-0.813602	289.971000	-21.169200	0.214708	0.000000	-0.978445	21.894100	-5.810790	4.716290
4.225000	2.658510	312.713000	20.257700	0.181875	0.000000	-1.443350	-19.546500	5.825290	-5.325000	-0.928508	289.207000	-21.202000	0.216103	0.000000	-0.979164	22.047000	-5.756930	5.109460
4.230000	2.045230	312.780000	20.636100	0.181552	0.000000	-1.443080	-19.646500	5.809440	-5.420510	-0.563272	289.832000	-21.547500	0.215851	0.000000	-0.979811	22.274600	-5.933750	5.063770
4.235000	1.857820	312.761000	20.445400	0.182271	0.000000	-1.441950	-20.000700	5.744480	-5.200810	-0.804705	291.310000	-20.814300	0.216103	0.000000	-0.979876	22.412000	-5.840880	5.136550
4.240000	1.860250	314.000000	20.620200	0.182717	0.000000	-1.443240	-19.674300	5.745170	-5.080600	-1.170000	292.327000	-20.967600	0.216582	0.000000	-0.979553	22.403600	-5.830020	5.296990
4.245000	2.123830	314.981000	20.676000	0.182670	0.000000	-1.442880	-19.845400	5.748730	-5.113590	-1.623130	292.588000	-20.880700	0.216857	0.000000	-0.980340	22.663600	-5.786360	5.379120
4.250000	2.453660	316.677000	21.303900	0.182819	0.000000	-1.442070	-20.203500	5.901750	-5.078920	-1.784290	293.827000	-20.758200	0.217370	0.000000	-0.980668	22.859600	-5.856000	5.552700
4.255000	2.870830	319.919000	21.690900	0.183399	0.000000	-1.442350	-20.316200	5.891400	-4.948370	-2.134740	295.294000	-20.660300	0.217924	0.000000	-0.980429	22.910100	-5.800040	5.736180
4.260000	3.567190	324.688000	21.914100	0.183542	0.000000	-1.442330	-20.611300	6.078030	-4.973200	-2.619390	298.031000	-20.728400	0.218661	0.000000	-0.979738	22.926600	-5.813560	6.006830
4.265000	3.833980	327.649000	22.413200	0.183652	0.000000	-1.441900	-20.935600	6.235320	-4.971860	-3.030730	300.728000	-20.934700	0.218971	0.000000	-0.980677	23.424500	-5.792850	6.152420
4.270000	4.041450	330.004000	23.416500	0.184100	0.000000	-1.441240	-21.299000	6.404180	-4.837490	-2.580930	304.387000	-21.516200	0.219600	0.000000	-0.980432	23.624400	-5.884310	6.425910
4.275000	4.100120	335.933000	23.609100	0.185074	0.000000	-1.440720	-21.857600	6.476210	-4.602590	-2.426840	306.707000	-21.828700	0.220016	0.000000	-0.980023	23.675100	-5.900540	6.603520
4.280000	3.904970	339.918000	24.733200	0.185645	0.000000	-1.440690	-22.132900	6.561000	-4.446500	-2.775520	307.634000	-21.576900	0.221195	0.000000	-0.981130	24.094300	-5.869630	6.979210
4.285000	4.236600	341.712000	25.415900	0.186493	0.000000	-1.439940	-22.497700	6.615840	-4.169910	-2.970290	310.060000	-21.973000	0.221025	0.000000	-0.981203	24.310500	-5.873350	6.984430
4.290000	4.381020	349.726000	26.306400	0.187188	0.000000	-1.440430	-22.853200	6.802740	-4.016010	-3.007950	315.571000	-22.233100	0.221295	0.000000	-0.979816	24.303900	-5.924150	7.187210
4.295000	4.783330	353.647000	27.432000	0.188022	0.000000	-1.440280	-23.157300	6.871580	-3.752700	-2.806230	318.133000	-22.771700	0.221741	0.000000	-0.980368	24.672000	-5.955150	7.393930
4.300000	5.224540	358.880000	28.299400	0.188187	0.000000	-1.439570	-23.747700	6.989990	-3.741950	-2.775380	318.948000	-23.224900	0.222388	0.000000	-0.981032	24.946600	-5.987020	7.630100
4.305000	5.517710	364.730000	29.591700	0.188687	0.000000	-1.439410	-24.188500	7.138630	-3.603960	-2.692310	322.109000	-24.041700	0.222794	0.000000	-0.981704	25.407500	-5.971830	7.844560
4.310000	5.250000	370.624000	30.381900	0.189588	0.000000	-1.439470	-24.564600	7.129260	-3.329080	-2.607930	323.175000	-25.383800	0.223180	0.000000	-0.980892	25.228000	-6.055410	8.028950
4.315000	5.647130	376.605000	30.888400	0.190238	0.000000	-1.439540	-24.929300	7.355170	-3.128620	-3.151920	327.621000	-25.703100	0.223584	0.000000	-0.980653	25.507200	-6.042420	8.267580
4.320000	5.602460	382.084000	31.585100	0.190769	0.000000	-1.438510	-25.687900	7.466840	-2.964980	-2.958630	330.722000	-26.714700	0.224013	0.000000	-0.981570	26.046700	-6.053880	8.501230
4.325000	6.012650	388.337000	31.979000	0.191575	0.000000	-1.438910	-25.943600	7.661560	-2.696090	-2.884830	334.093000	-27.807700	0.224472	0.000000	-0.980959	26.105600	-6.063260	8.755870
4.330000	6.266950	393.406000	32.802900	0.192285	0.000000	-1.438600	-26.407300	7.585600	-2.458940	-3.803240	337.176000	-28.102200	0.224727	0.000000	-0.981185	26.440700	-5.980170	8.918630
4.335000	6.420660	398.715000	33.620200	0.192942	0.000000	-1.438190	-26.924000	7.717360	-2.220030	-4.002610	340.539000	-28.908200	0.225569	0.000000	-0.981076	26.670700	-5.990940	9.305260
4.340000	6.696490	402.959000	34.500900	0.193762	0.000000	-1.437100	-27.642700	7.876990	-1.896990	-4.239360	345.066000	-29.299000	0.225907	0.000000	-0.981242	27.085700	-5.986050	9.540630
4.345000	6.393910	407.691000	34.933900	0.194088	0.000000	-1.437140	-27.962500	7.815090	-1.796210	-4.555830	347.363000	-30.328800	0.226192	0.000000	-0.981410	27.330200	-5.972960	9.720210
4.350000	6.776450	412.755000	35.691800	0.194860	0.000000	-1.437020	-28.354600	7.812940	-1.502330	-4.994200	352.264000	-31.101400	0.226887	0.000000	-0.981724	27.833800	-5.961350	10.106300
4.355000	6.199850	415.209000	36.642200	0.195827	0.000000	-1.436220	-28.864800	7.812090	-1.094720	-5.058840	353.722000	-31.811100	0.227571	0.000000	-0.981242	27.779000	-5.945020	10.401600
